<svg xmlns="http://www.w3.org/2000/svg" viewBox="0 0 960 200" width="960" height="200" role="img" aria-labelledby="t d" font-family="system-ui, sans-serif">
<title id="t">How deep-cove-research writes each report: six stages</title><desc id="d">Six stages from left to right: plan, search, read, extract, check coverage, and write. The last stage, writing, uses GPT-5.6 Luna at its maximum reasoning setting.</desc>
<rect x="0.5" y="0.5" width="959" height="199" rx="12" fill="#f6f8fa" stroke="#d1d9e0"/>
<rect x="24" y="44" width="136" height="112" rx="10" fill="#ffffff" stroke="#d1d9e0"/>
<text x="36" y="64" font-size="11" font-weight="600" fill="#59636e" style="font-variant-numeric: tabular-nums">01</text>
<text x="92.0" y="96" font-size="16" font-weight="600" text-anchor="middle" fill="#1f2328">Plan</text>
<text x="92.0" y="120" font-size="12" text-anchor="middle" fill="#59636e">scope and</text>
<text x="92.0" y="136" font-size="12" text-anchor="middle" fill="#59636e">report outline</text>
<path d="M163 100.0 H176" stroke="#8c959f" stroke-width="1.5"/>
<path d="M173 96.0 L177 100.0 L173 104.0" fill="none" stroke="#8c959f" stroke-width="1.5" stroke-linecap="round" stroke-linejoin="round"/>
<rect x="180" y="44" width="136" height="112" rx="10" fill="#ffffff" stroke="#d1d9e0"/>
<text x="192" y="64" font-size="11" font-weight="600" fill="#59636e" style="font-variant-numeric: tabular-nums">02</text>
<text x="248.0" y="96" font-size="16" font-weight="600" text-anchor="middle" fill="#1f2328">Search</text>
<text x="248.0" y="120" font-size="12" text-anchor="middle" fill="#59636e">open web and</text>
<text x="248.0" y="136" font-size="12" text-anchor="middle" fill="#59636e">scholarly literature</text>
<path d="M319 100.0 H332" stroke="#8c959f" stroke-width="1.5"/>
<path d="M329 96.0 L333 100.0 L329 104.0" fill="none" stroke="#8c959f" stroke-width="1.5" stroke-linecap="round" stroke-linejoin="round"/>
<rect x="336" y="44" width="136" height="112" rx="10" fill="#ffffff" stroke="#d1d9e0"/>
<text x="348" y="64" font-size="11" font-weight="600" fill="#59636e" style="font-variant-numeric: tabular-nums">03</text>
<text x="404.0" y="96" font-size="16" font-weight="600" text-anchor="middle" fill="#1f2328">Read</text>
<text x="404.0" y="120" font-size="12" text-anchor="middle" fill="#59636e">full text of</text>
<text x="404.0" y="136" font-size="12" text-anchor="middle" fill="#59636e">selected sources</text>
<path d="M475 100.0 H488" stroke="#8c959f" stroke-width="1.5"/>
<path d="M485 96.0 L489 100.0 L485 104.0" fill="none" stroke="#8c959f" stroke-width="1.5" stroke-linecap="round" stroke-linejoin="round"/>
<rect x="492" y="44" width="136" height="112" rx="10" fill="#ffffff" stroke="#d1d9e0"/>
<text x="504" y="64" font-size="11" font-weight="600" fill="#59636e" style="font-variant-numeric: tabular-nums">04</text>
<text x="560.0" y="96" font-size="16" font-weight="600" text-anchor="middle" fill="#1f2328">Extract</text>
<text x="560.0" y="120" font-size="12" text-anchor="middle" fill="#59636e">cited</text>
<text x="560.0" y="136" font-size="12" text-anchor="middle" fill="#59636e">findings</text>
<path d="M631 100.0 H644" stroke="#8c959f" stroke-width="1.5"/>
<path d="M641 96.0 L645 100.0 L641 104.0" fill="none" stroke="#8c959f" stroke-width="1.5" stroke-linecap="round" stroke-linejoin="round"/>
<rect x="648" y="44" width="136" height="112" rx="10" fill="#ffffff" stroke="#d1d9e0"/>
<text x="660" y="64" font-size="11" font-weight="600" fill="#59636e" style="font-variant-numeric: tabular-nums">05</text>
<text x="716.0" y="96" font-size="16" font-weight="600" text-anchor="middle" fill="#1f2328">Coverage</text>
<text x="716.0" y="120" font-size="12" text-anchor="middle" fill="#59636e">checked against</text>
<text x="716.0" y="136" font-size="12" text-anchor="middle" fill="#59636e">the question</text>
<path d="M787 100.0 H800" stroke="#8c959f" stroke-width="1.5"/>
<path d="M797 96.0 L801 100.0 L797 104.0" fill="none" stroke="#8c959f" stroke-width="1.5" stroke-linecap="round" stroke-linejoin="round"/>
<rect x="804" y="44" width="136" height="112" rx="10" fill="#0e6380" stroke="#0e6380"/>
<text x="816" y="64" font-size="11" font-weight="600" fill="#d3ebf3" style="font-variant-numeric: tabular-nums">06</text>
<text x="872.0" y="96" font-size="16" font-weight="600" text-anchor="middle" fill="#ffffff">Write</text>
<text x="872.0" y="120" font-size="12" text-anchor="middle" fill="#d3ebf3">GPT-5.6 Luna,</text>
<text x="872.0" y="136" font-size="12" text-anchor="middle" fill="#d3ebf3">maximum reasoning</text>
</svg>
